<mxfile host="65bd71144e">
    <diagram id="cXjYJee4xQqYQoxqkLGz" name="Page-1">
        <mxGraphModel dx="768" dy="608" grid="1" gridSize="10" guides="1" tooltips="1" connect="1" arrows="1" fold="1" page="1" pageScale="1" pageWidth="827" pageHeight="1169" math="0" shadow="0">
            <root>
                <mxCell id="0"/>
                <mxCell id="1" parent="0"/>
                <mxCell id="46" value="" style="rounded=0;whiteSpace=wrap;html=1;fontFamily=Helvetica;fontSize=18;dashed=1;strokeColor=#66B2FF;" vertex="1" parent="1">
                    <mxGeometry x="90" y="20" width="520" height="370" as="geometry"/>
                </mxCell>
                <mxCell id="5" value="" style="edgeStyle=none;curved=1;rounded=1;html=1;fontFamily=Helvetica;" edge="1" parent="1" source="3" target="4">
                    <mxGeometry relative="1" as="geometry"/>
                </mxCell>
                <mxCell id="45" style="edgeStyle=none;curved=1;rounded=1;html=1;fontFamily=Helvetica;fontSize=18;" edge="1" parent="1" source="3" target="42">
                    <mxGeometry relative="1" as="geometry"/>
                </mxCell>
                <mxCell id="50" value="" style="edgeStyle=none;curved=1;rounded=1;html=1;fontFamily=Helvetica;fontSize=18;" edge="1" parent="1" source="3" target="49">
                    <mxGeometry relative="1" as="geometry"/>
                </mxCell>
                <mxCell id="3" value="&lt;font color=&quot;#4d4d4d&quot;&gt;Checkout.API&lt;/font&gt;" style="whiteSpace=wrap;html=1;fillColor=#bac8d3;strokeColor=#23445d;rounded=1;" vertex="1" parent="1">
                    <mxGeometry x="124" y="77.5" width="120" height="60" as="geometry"/>
                </mxCell>
                <mxCell id="32" value="" style="edgeStyle=none;curved=1;rounded=1;html=1;fontFamily=Helvetica;fontSize=12;" edge="1" parent="1" source="4" target="31">
                    <mxGeometry relative="1" as="geometry"/>
                </mxCell>
                <mxCell id="4" value="&lt;font color=&quot;#4d4d4d&quot;&gt;Catalog.gRPC&lt;/font&gt;" style="whiteSpace=wrap;html=1;fillColor=#bac8d3;strokeColor=#23445d;rounded=1;" vertex="1" parent="1">
                    <mxGeometry x="124" y="190" width="120" height="60" as="geometry"/>
                </mxCell>
                <mxCell id="39" value="" style="edgeStyle=none;curved=1;rounded=1;html=1;fontFamily=Helvetica;fontSize=7;" edge="1" parent="1" source="8" target="38">
                    <mxGeometry relative="1" as="geometry"/>
                </mxCell>
                <mxCell id="8" value="&lt;font color=&quot;#4d4d4d&quot;&gt;Ordering.API&lt;/font&gt;" style="whiteSpace=wrap;html=1;fillColor=#bac8d3;strokeColor=#23445d;rounded=1;" vertex="1" parent="1">
                    <mxGeometry x="124" y="290" width="120" height="60" as="geometry"/>
                </mxCell>
                <mxCell id="31" value="&lt;font style=&quot;font-size: 7px&quot;&gt;SQL DB&lt;/font&gt;" style="shape=cylinder3;whiteSpace=wrap;html=1;boundedLbl=1;backgroundOutline=1;size=15;rounded=1;fontFamily=Helvetica;fontSize=12;" vertex="1" parent="1">
                    <mxGeometry x="260" y="185" width="40" height="65" as="geometry"/>
                </mxCell>
                <mxCell id="38" value="&lt;font style=&quot;font-size: 7px&quot;&gt;SQL DB&lt;/font&gt;" style="shape=cylinder3;whiteSpace=wrap;html=1;boundedLbl=1;backgroundOutline=1;size=15;rounded=1;fontFamily=Helvetica;fontSize=12;" vertex="1" parent="1">
                    <mxGeometry x="260" y="288.75" width="40" height="62.5" as="geometry"/>
                </mxCell>
                <mxCell id="43" value="" style="edgeStyle=none;curved=1;rounded=1;html=1;fontFamily=Helvetica;fontSize=18;" edge="1" parent="1" source="40" target="42">
                    <mxGeometry relative="1" as="geometry"/>
                </mxCell>
                <mxCell id="40" value="&lt;font style=&quot;font-size: 18px&quot; color=&quot;#4d4d4d&quot;&gt;RabbitMq&lt;/font&gt;" style="shape=cylinder3;whiteSpace=wrap;html=1;boundedLbl=1;backgroundOutline=1;size=15;rounded=1;fontFamily=Helvetica;fontSize=7;fillColor=#fad7ac;strokeColor=#b46504;" vertex="1" parent="1">
                    <mxGeometry x="460" y="80" width="100" height="280" as="geometry"/>
                </mxCell>
                <mxCell id="44" style="edgeStyle=none;curved=1;rounded=1;html=1;fontFamily=Helvetica;fontSize=18;" edge="1" parent="1" source="42" target="8">
                    <mxGeometry relative="1" as="geometry"/>
                </mxCell>
                <mxCell id="42" value="&lt;font color=&quot;#1a1a1a&quot;&gt;MassTransit&lt;/font&gt;" style="rounded=0;whiteSpace=wrap;html=1;fontFamily=Helvetica;fontSize=18;horizontal=0;fillColor=#d0cee2;strokeColor=#56517e;" vertex="1" parent="1">
                    <mxGeometry x="360" y="80" width="56" height="280" as="geometry"/>
                </mxCell>
                <mxCell id="47" value="" style="aspect=fixed;html=1;points=[];align=center;image;fontSize=12;image=img/lib/mscae/Docker.svg;rounded=1;dashed=1;fontFamily=Helvetica;strokeColor=#66B2FF;" vertex="1" parent="1">
                    <mxGeometry x="550" y="30" width="50" height="41" as="geometry"/>
                </mxCell>
                <mxCell id="49" value="&lt;font style=&quot;font-size: 10px&quot;&gt;Redis&lt;/font&gt;" style="aspect=fixed;html=1;points=[];align=center;image;fontSize=12;image=img/lib/mscae/Cache_Redis_Product.svg;rounded=1;dashed=1;fontFamily=Helvetica;strokeColor=#66B2FF;" vertex="1" parent="1">
                    <mxGeometry x="260" y="86.5" width="50" height="42" as="geometry"/>
                </mxCell>
            </root>
        </mxGraphModel>
    </diagram>
</mxfile>